<svg width="765" height="719" viewBox="0 0 765 719" fill="none" xmlns="http://www.w3.org/2000/svg">
<g filter="url(#filter0_f_1_645)">
<ellipse cx="388.419" cy="359.75" rx="236.955" ry="207.861" fill="url(#paint0_linear_1_645)"/>
</g>
<path d="M368.243 37.4016C371.151 27.6308 377.305 19.128 384.577 11.7067C391.327 18.8297 398.264 26.2137 401.956 34.6792C408.333 49.2981 404.044 64.4764 399.606 78.3868C399.233 79.5056 398.823 80.6989 397.779 81.3702C396.66 82.0415 395.094 81.9669 393.639 81.8177C384.092 80.8108 369.175 78.2003 369.138 67.8701C369.1 57.3162 365.147 47.8437 368.243 37.4016Z" fill="#66AD38"/>
<path d="M428.285 59.6293C447.864 56.4221 463.788 65.9319 468.375 68.878C463.75 76.0756 451.854 92.5964 432.723 98.899C427.502 100.614 416.761 104.157 409.228 99.16C406.916 97.631 405.051 95.5799 403.746 93.7525C401.322 90.4707 397.331 84.5038 397.481 80.2524C397.63 76.0383 401.023 73.4278 404.417 70.6681C414.934 61.9415 426.756 59.8904 428.285 59.6293Z" fill="#66AD38"/>
<path d="M407.699 49.0743C412.547 46.3146 417.283 45.6806 420.304 45.2331C426.233 44.3381 431.231 44.8229 434.624 45.3823C434.587 47.7317 434.289 51.1254 433.021 54.9666C432.797 55.6752 431.753 59.0688 429.515 62.3879C423.772 70.8535 414.076 76.4847 403.857 77.2679C401.135 77.4916 398.263 77.3052 395.951 75.8508C385.472 69.2872 401.508 52.5798 407.699 49.0743Z" fill="#6FC13A"/>
<path d="M397.741 81.3702C398.822 80.6989 399.233 79.5055 399.568 78.3868C404.006 64.4764 408.295 49.3354 401.918 34.6792C398.226 26.2137 391.327 18.8669 384.539 11.7067C384.502 11.744 384.465 11.7813 384.427 11.8185C384.539 14.4664 385.099 17.599 385.136 18.9415C385.248 23.4913 385.397 28.0783 385.509 32.6281C385.546 34.1198 385.509 35.798 384.427 36.8422C383.831 37.4016 383.047 37.6627 382.264 37.8864C377.491 39.2663 372.568 40.0121 367.608 40.0867C365.818 49.4846 369.1 58.2112 369.137 67.8328C369.174 78.163 384.092 80.7735 393.639 81.7804C395.056 81.9669 396.622 82.0415 397.741 81.3702Z" fill="#D8E8CD"/>
<path d="M429.479 62.4273C431.717 59.1082 432.761 55.6773 432.985 55.006C434.029 51.8361 434.402 49.0391 434.551 46.8015C432.09 51.1648 427.502 54.3347 422.468 54.8195C419.074 55.1179 415.643 54.1856 412.772 52.3582C411.094 51.2767 410.198 49.7477 409.229 48.2932C408.707 48.5543 408.185 48.8153 407.663 49.1137C401.472 52.6192 385.436 69.3266 395.878 75.9274C398.19 77.3819 401.062 77.5683 403.784 77.3446C414.04 76.5614 423.736 70.8929 429.479 62.4273Z" fill="#D8E8CD"/>
<path d="M467.628 68.4305C463.153 69.7731 458.566 70.8919 453.718 72.0107C448.31 73.2786 442.791 74.5466 437.234 74.3228C431.678 74.0991 425.972 72.1598 422.317 67.983C420.863 66.3048 419.52 64.1791 417.917 62.6874C413.777 64.3656 408.966 66.9015 404.379 70.7054C402.552 72.2344 400.724 73.6516 399.382 75.367C400.202 79.7676 401.321 84.1309 402.776 88.345C404.006 91.9998 405.572 95.7291 408.258 98.4888C408.556 98.7125 408.892 98.9736 409.227 99.1973C416.76 104.195 427.501 100.652 432.722 98.9363C451.853 92.6337 463.75 76.1129 468.374 68.9153C468.15 68.7662 467.889 68.5797 467.628 68.4305Z" fill="#D8E8CD"/>
<path d="M391.18 115.382C349.561 115.382 315.811 109.043 315.811 101.211V408.432C315.811 416.263 349.561 422.603 391.18 422.603C432.799 422.603 466.549 416.263 466.549 408.432V101.211C466.512 109.043 432.799 115.382 391.18 115.382Z" fill="#BBDCF9" fill-opacity="0.54"/>
<path d="M434.402 393.402H347.882C334.232 393.402 323.156 382.326 323.156 368.677C323.156 313.558 323.156 258.476 323.156 203.357C368.467 203.357 413.779 203.357 459.09 203.357C459.09 258.476 459.09 313.558 459.09 368.677C459.127 382.364 448.051 393.402 434.402 393.402Z" fill="#FCE631"/>
<path d="M422.549 239.185C424.173 233.823 421.142 228.16 415.78 226.536C410.418 224.913 404.756 227.943 403.132 233.305C401.509 238.667 404.539 244.33 409.901 245.953C415.263 247.577 420.926 244.546 422.549 239.185Z" fill="#FFF89F"/>
<path d="M381.184 278.612C385.18 278.612 388.419 275.373 388.419 271.377C388.419 267.381 385.18 264.142 381.184 264.142C377.188 264.142 373.949 267.381 373.949 271.377C373.949 275.373 377.188 278.612 381.184 278.612Z" fill="#FFF89F"/>
<path d="M431.79 312.179C434.303 312.179 436.34 310.142 436.34 307.629C436.34 305.116 434.303 303.079 431.79 303.079C429.277 303.079 427.24 305.116 427.24 307.629C427.24 310.142 429.277 312.179 431.79 312.179Z" fill="#FFF89F"/>
<path d="M364.215 344.695C368.52 344.695 372.009 341.205 372.009 336.901C372.009 332.596 368.52 329.107 364.215 329.107C359.911 329.107 356.421 332.596 356.421 336.901C356.421 341.205 359.911 344.695 364.215 344.695Z" fill="#FFF89F"/>
<path d="M422.228 365.054C427.829 364.364 431.811 359.264 431.121 353.663C430.431 348.062 425.332 344.081 419.731 344.77C414.129 345.46 410.148 350.56 410.838 356.161C411.527 361.762 416.627 365.743 422.228 365.054Z" fill="#FFF89F"/>
<path d="M361.792 244.453C366.117 244.453 369.623 240.947 369.623 236.621C369.623 232.296 366.117 228.79 361.792 228.79C357.466 228.79 353.96 232.296 353.96 236.621C353.96 240.947 357.466 244.453 361.792 244.453Z" fill="#FFF89F"/>
<path d="M391.178 214.508C428.704 214.508 459.126 209.532 459.126 203.394C459.126 197.257 428.704 192.281 391.178 192.281C353.651 192.281 323.229 197.257 323.229 203.394C323.229 209.532 353.651 214.508 391.178 214.508Z" fill="#F8F270"/>
<path opacity="0.23" d="M415.047 101.211V421.895C444.956 420.03 466.511 414.697 466.511 408.432V101.211H415.047Z" fill="#777589"/>
<path d="M391.18 87.0396C349.561 87.0396 315.811 93.3794 315.811 101.211C315.811 109.043 349.561 115.382 391.18 115.382C432.799 115.382 466.549 109.043 466.549 101.211C466.549 93.3794 432.799 87.0396 391.18 87.0396ZM391.18 112.324C353.626 112.324 323.232 107.327 323.232 101.211C323.232 95.0576 353.663 90.0976 391.18 90.0976C428.734 90.0976 459.128 95.0949 459.128 101.211C459.128 107.364 428.697 112.324 391.18 112.324Z" fill="#E1F2FF"/>
<path d="M391.178 112.323C428.704 112.323 459.126 107.347 459.126 101.21C459.126 95.072 428.704 90.0964 391.178 90.0964C353.651 90.0964 323.229 95.072 323.229 101.21C323.229 107.347 353.651 112.323 391.178 112.323Z" fill="url(#paint1_linear_1_645)"/>
<path d="M420.675 86.8533C419.705 87.3754 418.735 87.8975 417.766 88.4196C417.393 87.711 416.983 87.0025 416.61 86.2939C393.824 46.5767 343.254 31.6222 303.686 52.842C264.118 74.0618 250.469 123.475 273.255 163.192C273.516 163.603 273.74 164.05 274.001 164.46C272.882 165.094 271.763 165.766 270.682 166.437C270.421 165.952 270.122 165.504 269.861 165.02C246.068 123.55 260.277 71.9734 301.635 49.8212C342.956 27.6691 395.763 43.295 419.518 84.7276C419.929 85.4362 420.302 86.1447 420.675 86.8533Z" fill="#FFE85F"/>
<path d="M416.609 86.2968C393.823 46.5796 343.254 31.6251 303.686 52.8449C264.118 74.0647 250.469 123.478 273.255 163.195C273.516 163.605 273.74 164.053 274.001 164.463C321.922 139.104 369.844 113.745 417.766 88.4225C417.393 87.7139 417.02 87.0054 416.609 86.2968ZM274.112 105.54C275.865 105.503 277.618 106.025 279.333 106.472C283.398 107.628 287.501 108.785 291.566 109.903C294.698 110.798 297.794 111.656 300.926 112.551C302.642 113.036 304.581 113.633 309.317 115.124C326.248 120.42 321.4 119.227 326.286 120.644C333.073 122.62 336.429 123.217 336.951 125.305C337.362 126.909 335.907 128.699 335.385 129.147C334.341 130.116 332.998 130.75 331.693 131.384C328.187 133.1 324.719 134.927 321.288 136.754C319.013 137.948 316.776 139.178 314.501 140.372C304.842 145.518 295.22 150.665 285.86 156.333C285.077 156.818 283.51 158.384 281.161 158.422C278.289 158.496 276.014 156.371 274.97 155.401C271.651 152.268 270.159 148.315 268.78 142.572C268.78 142.572 265.833 130.303 268.071 110.873C268.146 110.164 268.407 108.785 269.414 107.517C270.532 106.174 272.36 105.577 274.112 105.54ZM307.341 62.4665C308.646 63.6972 309.578 65.2262 310.473 66.7552C312.636 70.3726 314.762 74.0274 316.925 77.6448C318.566 80.4045 320.207 83.2015 321.848 85.9612C322.743 87.4902 323.75 89.2802 326.136 93.569C334.676 109.008 331.991 104.794 334.565 109.195C338.107 115.274 340.084 118.033 339.002 119.823C338.145 121.203 335.795 121.39 335.124 121.39C333.67 121.315 332.215 120.83 330.835 120.345C327.069 119.04 323.227 117.921 319.386 116.765C316.888 116.019 314.352 115.274 311.853 114.528C301.113 111.32 290.41 108.113 279.52 105.465C278.625 105.242 276.35 105.242 274.597 103.638C272.472 101.699 272.322 98.6781 272.248 97.261C272.099 92.8231 273.814 89.0565 276.947 84.1338C276.947 84.1338 283.585 73.6544 299.173 61.9071C299.733 61.4969 300.926 60.7137 302.567 60.5273C304.283 60.3781 306.035 61.2358 307.341 62.4665ZM362.124 55.8283C362.199 57.5811 361.751 59.2966 361.341 60.9748C360.297 64.9651 359.253 68.9555 358.246 72.9459C357.463 76.0039 356.642 79.0246 355.859 82.0827C355.411 83.7609 354.852 85.6628 353.51 90.2872C348.661 106.808 349.743 102.072 348.438 106.883C346.648 113.521 346.125 116.803 344.037 117.25C342.396 117.586 340.569 116.094 340.084 115.609C339.04 114.528 338.369 113.222 337.697 111.917C335.87 108.412 333.893 104.943 331.917 101.475C330.612 99.2002 329.306 96.9253 328.038 94.6505C322.519 84.9915 317 75.2953 310.958 65.8975C310.473 65.1143 308.795 63.5107 308.683 61.1985C308.534 58.3643 310.585 56.2013 311.555 55.1943C314.613 52.0244 318.603 50.6819 324.384 49.4885C324.384 49.4885 336.728 46.9526 356.53 49.7495C357.239 49.8614 358.656 50.1598 359.961 51.1667C361.416 52.2482 362.05 54.0755 362.124 55.8283ZM408.107 81.8216C408.554 82.381 409.375 83.5744 409.598 85.2153C409.822 86.9681 409.002 88.6836 407.808 89.9142C406.615 91.1449 405.049 92.0399 403.557 92.8604C399.939 94.8742 396.322 96.888 392.705 98.8646C389.945 100.394 387.185 101.923 384.426 103.452C382.896 104.309 381.144 105.204 376.855 107.442C361.453 115.385 365.667 112.887 361.266 115.274C355.225 118.555 352.465 120.457 350.638 119.301C349.221 118.406 348.922 116.094 348.96 115.423C348.96 113.968 349.445 112.588 349.892 111.209C351.085 107.517 352.13 103.787 353.174 100.021C353.845 97.5593 354.554 95.098 355.225 92.6366C358.134 82.1573 361.043 71.6779 363.392 61.0494C363.579 60.1543 363.504 57.9167 365.108 56.2385C367.01 54.1874 370.068 54.1501 371.522 54.1501C376.035 54.1128 379.913 55.9775 384.985 59.1847C384.836 59.1847 395.688 66.0839 408.107 81.8216Z" fill="#FFFAD7"/>
<path d="M409.599 85.1746C409.822 86.9274 409.002 88.6429 407.809 89.8735C406.615 91.1042 405.049 91.9992 403.557 92.8197C399.94 94.8335 396.322 96.8474 392.705 98.8239C389.945 100.353 387.185 101.882 384.426 103.411C382.897 104.269 381.144 105.164 376.855 107.401C361.453 115.345 365.667 112.846 361.267 115.233C355.225 118.515 352.466 120.417 350.638 119.261C349.221 118.365 348.923 116.053 348.96 115.382C348.96 113.928 349.445 112.548 349.892 111.168C351.086 107.476 352.13 103.747 353.174 99.98C353.845 97.5186 354.554 95.0573 355.225 92.5959C358.134 82.1166 361.043 71.6372 363.392 61.0087C363.579 60.1136 363.504 57.876 365.108 56.1979C367.01 54.1467 370.068 54.1094 371.522 54.1094C376.035 54.0721 379.913 55.9368 384.985 59.144C384.985 59.144 395.8 66.0059 408.219 81.7436C408.554 82.3776 409.375 83.571 409.599 85.1746Z" fill="#F8F270"/>
<path d="M361.341 60.9349C360.297 64.9253 359.253 68.9156 358.246 72.906C357.463 75.964 356.642 78.9848 355.859 82.0428C355.412 83.721 354.852 85.6229 353.51 90.2473C348.662 106.768 349.743 102.032 348.438 106.843C346.648 113.481 346.126 116.763 344.037 117.21C342.396 117.546 340.569 116.054 340.084 115.569C339.04 114.488 338.369 113.183 337.698 111.877C335.87 108.372 333.894 104.903 331.917 101.435C330.612 99.1603 329.307 96.8855 328.039 94.6106C322.519 84.9517 317 75.2555 310.958 65.8576C310.474 65.0744 308.795 63.4708 308.683 61.1587C308.534 58.3244 310.585 56.1614 311.555 55.1545C314.613 51.9846 318.603 50.642 324.384 49.4486C324.384 49.4486 336.728 46.9127 356.531 49.7097C357.239 49.8216 358.656 50.1199 359.962 51.1268C361.379 52.2456 362.05 54.0357 362.125 55.7884C362.199 57.5412 361.789 59.2567 361.341 60.9349Z" fill="#F8F270"/>
<path d="M334.565 109.229C338.108 115.308 340.084 118.068 339.003 119.858C338.145 121.238 335.796 121.424 335.124 121.424C333.67 121.35 332.216 120.865 330.836 120.38C327.069 119.075 323.228 117.956 319.387 116.8C316.888 116.054 314.352 115.308 311.854 114.562C301.113 111.355 290.41 108.148 279.52 105.5C278.625 105.276 276.35 105.276 274.598 103.673C272.472 101.733 272.323 98.7126 272.248 97.2955C272.099 92.8576 273.815 89.091 276.947 84.1683C276.947 84.1683 283.585 73.689 299.174 61.9416C299.733 61.5314 300.927 60.7483 302.568 60.5618C304.32 60.3753 306.073 61.2331 307.378 62.4637C308.684 63.6944 309.616 65.2234 310.511 66.7524C312.674 70.3699 314.8 74.0246 316.963 77.642C318.604 80.4017 320.244 83.1987 321.885 85.9584C322.78 87.4874 323.787 89.2775 326.174 93.5662C334.677 109.006 331.992 104.829 334.565 109.229Z" fill="#F8F270"/>
<path d="M291.567 109.937C294.7 110.832 297.795 111.689 300.928 112.584C302.643 113.069 304.582 113.666 309.319 115.158C326.25 120.453 321.402 119.26 326.287 120.677C333.074 122.654 336.431 123.25 336.953 125.339C337.363 126.942 335.909 128.732 335.386 129.18C334.342 130.149 333 130.783 331.694 131.417C328.189 133.133 324.721 134.96 321.29 136.788C319.015 137.981 316.777 139.212 314.502 140.405C304.843 145.552 295.222 150.698 285.861 156.367C285.078 156.851 283.512 158.418 281.162 158.455C278.291 158.53 276.016 156.404 274.972 155.434C271.653 152.302 270.161 148.348 268.781 142.605C268.781 142.605 265.835 130.336 268.072 110.906C268.147 110.198 268.408 108.818 269.415 107.55C270.496 106.207 272.324 105.611 274.077 105.573C275.829 105.536 277.582 106.058 279.298 106.506C283.437 107.624 287.502 108.781 291.567 109.937Z" fill="#F8F270"/>
<path d="M299.621 150.475C299.21 150.699 298.763 150.923 298.353 151.147C300.851 149.767 303.35 148.387 305.848 146.97C306.52 146.597 307.266 146.187 308.31 145.664C305.438 147.305 302.529 148.909 299.621 150.475Z" fill="#F8F270"/>
<path d="M378.013 55.4906C375.813 54.5955 373.687 54.148 371.412 54.148C369.995 54.148 366.937 54.2226 364.998 56.2364C363.431 57.9146 363.506 60.1522 363.282 61.0472C360.933 71.6758 358.024 82.1551 355.115 92.6345L353.064 100.019C352.467 102.219 351.833 104.419 351.199 106.619C351.908 105.426 352.43 104.121 353.064 102.778C355.898 96.6249 358.695 90.4715 361.529 84.2808C363.133 80.7753 364.737 77.2697 366.862 74.0252C367.049 74.9203 367.31 75.8153 367.683 76.6358C368.951 74.9576 370.368 73.3913 371.86 71.9368C371.86 71.8995 371.86 71.8622 371.86 71.8622C371.934 69.9603 372.755 67.9838 373.575 66.3056C374.321 64.7393 375.664 62.539 377.715 62.6508C379.318 62.7627 380.251 63.9934 380.362 65.3359C380.549 65.2614 380.735 65.1868 380.922 65.1122C381.966 64.7765 383.122 64.963 384.166 65.2986C387.075 66.2683 389.313 68.6177 391.998 70.184C393.378 71.0045 394.832 71.6012 396.249 72.2725C399.009 73.5777 401.657 75.144 404.155 76.9341C395.503 66.9023 388.194 61.4202 385.77 59.742C384.427 59.8539 383.159 59.6674 381.966 58.8842C381.63 58.6605 381.332 58.3994 380.996 58.1757C380.474 58.5859 379.691 58.6978 379.094 58.1011C378.199 57.2806 377.677 56.5348 378.013 55.4906ZM366.34 71.6012C365.482 73.5031 365.445 75.6288 364.215 77.3816C363.431 78.5004 361.529 78.0902 361.529 76.5985C361.529 74.4728 361.977 72.3843 363.058 70.557C363.282 70.1468 363.655 69.9603 363.991 69.923C364.401 69.4009 365.259 69.3636 365.818 69.6619C366.527 70.0722 366.639 70.8926 366.34 71.6012ZM371.636 61.8677C371.337 62.9119 370.704 63.8069 370.331 64.7765C370.144 65.2614 369.734 65.6716 369.212 65.7462C369.174 65.7835 369.175 65.7835 369.137 65.8208C368.615 66.3429 367.645 66.3429 367.086 65.7835C364.96 63.5086 366.452 59.2199 369.025 58.0265C369.585 57.7654 370.331 57.8027 370.741 58.2875C371.71 59.3318 371.971 60.5624 371.636 61.8677Z" fill="#F5E642"/>
<path d="M362.125 55.8229C362.162 56.2705 362.125 56.718 362.087 57.1655C360.894 56.1586 359.7 55.189 358.544 54.182C357.948 53.6972 357.239 53.1378 356.456 53.2497C355.822 53.3243 355.263 53.8091 354.629 53.7345C353.995 53.6599 353.584 53.0259 353.1 52.5784C351.571 51.124 349.109 51.3105 347.17 52.0563C346.387 52.3547 345.604 52.7276 344.746 52.653C344.149 52.5784 343.59 52.2801 343.03 52.0936C340.718 51.3105 337.996 52.3174 336.877 54.3685C335.609 52.8768 333.483 52.2801 331.544 52.3547C329.605 52.4293 327.74 53.0632 325.913 53.7345C325.354 53.921 324.757 54.1447 324.421 54.6296C324.048 55.0771 324.048 55.8602 324.57 56.1959C324.421 56.3077 324.235 56.4196 324.086 56.5315C323.899 55.7111 323.563 54.9652 323.004 54.2939C322.706 53.921 322.072 53.7718 321.624 53.8837C321.55 53.921 321.438 53.921 321.363 53.9583C321.065 53.7718 320.729 53.6599 320.282 53.7345C318.753 53.9956 318.007 55.4873 318.156 56.9044C318.193 57.3892 318.342 57.8368 318.529 58.247C318.492 58.247 318.454 58.247 318.417 58.2843C318.007 57.6503 317.522 57.0536 316.851 56.5688C316.329 56.1586 315.545 56.3823 315.098 56.7553C314.315 57.3892 314.091 58.5453 314.315 59.5895C313.793 59.8879 313.308 60.2608 312.898 60.7456C310.474 63.468 311.555 66.1531 312.823 68.7636C312.189 67.794 311.592 66.7871 310.958 65.8175C310.474 65.0343 308.795 63.4307 308.683 61.1186C308.534 58.2843 310.585 56.1213 311.555 55.1144C314.613 51.9445 318.603 50.6019 324.384 49.4085C324.384 49.4085 336.728 46.8726 356.531 49.6696C357.239 49.7815 358.656 50.0798 359.962 51.0867C361.416 52.2428 362.05 54.0702 362.125 55.8229Z" fill="#F5E642"/>
<path d="M307.341 62.4629C308.647 63.6935 309.579 65.2226 310.474 66.7516C310.735 67.1618 310.959 67.572 311.22 67.9822C309.877 66.8634 308.348 65.8192 307.49 65.5209C305.514 64.8123 303.239 65.3344 301.561 66.5278C299.883 67.6839 298.652 69.3994 297.608 71.1895C297.198 71.8607 296.787 72.6066 296.116 72.9795C295.482 73.3152 294.699 73.3152 293.99 73.3525C291.79 73.427 289.291 74.061 288.434 76.0376C288.173 76.7088 288.098 77.4547 287.613 78.0141C286.793 78.9091 285.338 78.6481 284.145 78.9837C282.728 79.3566 281.758 80.55 280.751 81.5569C279.371 82.9741 277.731 84.1675 276.127 85.3981C276.388 84.9879 276.649 84.5777 276.91 84.1302C276.91 84.1302 283.548 73.6508 299.137 61.9035C299.696 61.4932 300.89 60.7101 302.53 60.5236C304.283 60.3744 306.036 61.2322 307.341 62.4629Z" fill="#F5E642"/>
<path d="M312.673 117.321C308.384 116.836 304.095 116.053 299.918 114.971C298.874 114.71 297.755 114.412 296.711 114.524C295.63 114.636 294.548 115.344 294.362 116.388C291.788 115.68 289.215 114.934 286.605 114.225C286.903 113.927 287.201 113.666 287.5 113.368C286.829 112.286 285.374 112.062 284.106 111.95C281.757 111.689 279.258 111.279 277.393 109.75C276.759 109.228 276.125 108.557 275.342 108.594C274.932 108.594 274.559 108.818 274.223 109.004C272.545 109.974 270.979 111.13 269.525 112.398C270.308 112.398 271.054 112.957 271.24 113.703C271.426 114.449 270.979 115.27 270.233 115.493C269.86 115.605 269.375 115.568 269.152 115.903C268.965 116.127 269.002 116.5 269.04 116.799C269.413 119.782 268.779 122.803 267.324 125.376C267.324 121.162 267.548 116.314 268.145 110.906C268.219 110.198 268.48 108.818 269.487 107.55C270.569 106.207 272.396 105.611 274.149 105.573C275.902 105.536 277.654 106.058 279.37 106.506C283.435 107.662 287.537 108.818 291.602 109.937C294.735 110.832 297.83 111.689 300.963 112.584C302.678 113.069 304.617 113.666 309.354 115.158C313.046 116.314 315.693 117.171 317.67 117.805C315.992 117.694 314.314 117.507 312.673 117.321Z" fill="#F5E642"/>
<path d="M298.987 139.847C298.875 139.921 298.763 139.959 298.651 140.033C298.577 140.071 298.502 139.959 298.577 139.921C298.689 139.847 298.801 139.81 298.912 139.735C299.024 139.698 299.062 139.81 298.987 139.847Z" fill="#FFF9AB"/>
<path d="M301.823 142.98C298.131 143.129 295.521 144.247 292.537 147.678C280.529 160.768 283.438 138.765 301.823 142.98Z" fill="#FFFCDC"/>
<path d="M286.979 142.83C284.369 144.322 280.005 152.005 275.344 147.418C273.777 144.583 284.294 142.346 286.979 142.83Z" fill="#FFFCDC"/>
<path d="M309.766 136.269C307.043 136.455 299.808 139.774 295.893 137.127C298.056 134.74 305.775 132.428 309.766 136.269Z" fill="#FFFCDC"/>
<path d="M318.043 132.649C317.372 133.693 310.212 134.103 313.717 131.194C314.426 131.94 318.416 130.933 318.043 132.649Z" fill="#FFFCDC"/>
<path d="M314.279 111.243C315.509 111.951 307.939 111.392 303.874 107.737C304.881 103.038 311.855 109.676 314.279 111.243Z" fill="#FFFCDC"/>
<path d="M298.093 105.348C278.029 105.833 277.022 92.0715 287.539 100.239C288.434 101.507 299.062 102.29 298.093 105.348Z" fill="#FFFCDC"/>
<path d="M292.611 98.9355C289.254 98.8236 282.206 94.2365 280.826 90.097C282.654 84.9505 292.014 97.5556 292.611 98.9355Z" fill="#FFFCDC"/>
<path d="M309.168 105.465C307.34 103.787 302.94 101.847 301.485 98.6403C302.567 100.505 314.501 102.929 309.168 105.465Z" fill="#FFFCDC"/>
<path d="M336.057 98.4518C334.379 95.0208 328.599 90.6203 327.405 85.4738C332.626 79.9171 333.447 94.3869 336.057 98.4518Z" fill="#FFFCDC"/>
<path d="M324.87 81.5558C322.819 80.7727 321.849 77.4536 320.768 74.3583C322.222 66.303 327.033 78.4232 324.87 81.5558Z" fill="#FFFCDC"/>
<path d="M318.791 71.3779C317.262 71.9746 314.465 66.6417 318.381 68.469C318.53 69.1776 318.791 68.0588 318.791 71.3779Z" fill="#FFFCDC"/>
<path d="M335.795 83.4604C335.832 87.2643 326.472 74.622 330.574 70.8553C334.192 73.2421 332.513 79.0598 335.795 83.4604Z" fill="#FFFCDC"/>
<path d="M371.333 103.561C380.843 103.971 363.017 111.84 360.779 110.684C363.912 108.186 366.261 105.65 371.333 103.561Z" fill="#FFFCDC"/>
<path d="M376.632 95.9894C374.656 97.8168 369.435 103.262 366.078 101.472C368.651 101.733 377.117 87.4866 376.632 95.9894Z" fill="#FFFCDC"/>
<path d="M392.182 92.222C392.518 96.9209 383.12 100.464 379.354 99.2331C381.144 97.5176 391.25 87.8214 392.182 92.222Z" fill="#FFFCDC"/>
<path opacity="0.58" d="M348.363 314.301C350.638 314.898 353.249 313.555 353.473 313.443C361.528 309.267 360.596 292.97 360.372 287.04C359.104 253.141 366.264 171.767 363.616 140.851C363.542 139.993 363.206 136.45 361.118 132.646C360.335 131.267 357.314 125.635 352.578 125.113C348.438 124.628 344.932 128.097 343.665 129.365C331.283 141.597 338.779 203.242 339.823 252.245C340.532 282.453 338.779 311.691 348.363 314.301Z" fill="white"/>
<path opacity="0.46" d="M337.366 111.131C337.478 111.355 337.59 111.579 337.739 111.802C338.336 112.958 338.932 114.114 339.753 115.084C338.932 114.114 338.336 112.921 337.739 111.802C337.59 111.579 337.478 111.355 337.366 111.131C324.052 108.558 315.811 105.052 315.811 101.211V117.173H315.848H315.811V142.345C333.226 133.134 350.642 123.923 368.021 114.711C356.274 114.003 345.794 112.772 337.366 111.131ZM318.794 118.142C318.421 118.03 318.048 117.881 317.638 117.769C318.048 117.918 318.421 118.03 318.794 118.142C319.167 118.254 319.465 118.366 319.764 118.478C319.465 118.366 319.13 118.254 318.794 118.142ZM320.323 118.664C320.696 118.776 320.994 118.888 321.255 119C320.994 118.888 320.696 118.776 320.323 118.664ZM326.29 120.641C325.992 120.566 325.731 120.454 325.469 120.417C325.731 120.492 325.992 120.566 326.29 120.641C328.155 121.163 329.721 121.61 331.101 122.021C329.758 121.61 328.155 121.2 326.29 120.641ZM333.301 122.692C333.786 122.841 334.233 123.028 334.606 123.177C334.196 123.028 333.786 122.841 333.301 122.692ZM336.993 126.197C337.03 125.899 337.03 125.601 336.956 125.302C336.881 125.004 336.769 124.743 336.583 124.519C336.769 124.743 336.881 125.041 336.956 125.302C337.03 125.601 337.03 125.899 336.993 126.197ZM338.97 119.82C338.224 121.051 336.322 121.349 335.389 121.387C336.322 121.349 338.224 121.051 338.97 119.82C339.193 119.485 339.268 119.112 339.268 118.702C339.305 119.112 339.193 119.485 338.97 119.82ZM341.692 116.688C342.363 117.023 343.146 117.284 343.855 117.21C343.109 117.284 342.363 117.023 341.692 116.688ZM344.265 117.098C344.564 116.986 344.825 116.837 345.086 116.613C344.825 116.837 344.564 117.023 344.265 117.098ZM348.927 115.942C348.927 116.091 348.964 116.24 349.001 116.427C348.964 116.277 348.964 116.091 348.927 115.942Z" fill="#BBDCF9"/>
<path d="M459.126 101.06C459.126 101.097 459.126 101.135 459.126 101.209C459.126 107.363 428.695 112.323 391.178 112.323C353.624 112.323 323.23 107.325 323.23 101.209C323.23 101.06 323.267 100.874 323.304 100.724H315.883C315.846 100.874 315.846 101.06 315.846 101.209C315.846 109.041 349.596 115.381 391.215 115.381C432.834 115.381 466.584 109.041 466.584 101.209C466.584 101.172 466.584 101.135 466.584 101.06H459.126Z" fill="#E1F2FF"/>
<g opacity="0.1" filter="url(#filter1_f_1_645)">
<ellipse cx="497.842" cy="476.745" rx="108.629" ry="11.2199" fill="#656565"/>
</g>
<g clip-path="url(#clip0_1_645)">
<g filter="url(#filter2_i_1_645)">
<path d="M563.037 404.799C562.551 396.707 560.726 388.736 558.845 380.837C555.017 364.798 550.895 348.804 545.555 333.191C532.86 295.925 497.462 289.331 500.77 268.48C501.434 264.354 503.197 261.25 504.406 259.48C494.661 260.772 481.105 263.548 466.038 270.075C457.218 273.864 443.055 280.11 428.867 293.335C422.725 299.037 404.694 316.413 397.494 343.459C394.482 345.609 390.677 348.573 386.622 352.461C376.702 361.97 367.351 370.857 368.632 379.797C369.769 387.545 377.255 392.776 388.27 400.204C394.528 404.427 400.249 407.189 404.576 408.974C407.555 412.323 412.341 417.449 418.622 423.189C428.651 432.285 452.944 453.922 490.503 463.747C497.189 465.481 507.115 467.612 519.532 468.417C524.967 466.455 554.66 455.177 561.294 430.908C563.956 420.963 563.193 407.874 563.037 404.799Z" fill="#FFCF00"/>
</g>
<path opacity="0.57" d="M437.178 299.086C430.965 304.732 425.167 311.085 421.721 318.738C418.275 326.392 417.411 335.555 420.947 343.143C426.02 354.07 438.691 359.432 450.651 360.807C453.345 361.096 456.246 361.245 458.626 359.97C460.615 358.92 462.026 357.102 463.346 355.281C475.291 338.548 483.021 318.81 485.584 298.392C486.077 294.479 486.355 290.396 485.199 286.612C479.293 267.034 445.272 291.766 437.178 299.086Z" fill="#FFF8A1"/>
<g filter="url(#filter3_i_1_645)">
<path d="M398.45 384.328C399.515 376.286 400.526 368.225 401.591 360.183C402.167 364.952 406.084 392.908 431.223 411.009C450.167 424.633 470.046 424.657 476.54 424.411C490.866 439.037 505.191 453.663 519.48 468.305C510.349 469.27 459.574 473.706 424.941 438.487C415.335 428.747 409.244 418.244 405.262 409.198C400.861 407.447 394.832 404.602 388.235 400.13C377.238 392.739 369.752 387.507 368.652 379.743C368.38 377.98 368.585 376.178 369.063 374.384C373.585 382.552 380.631 388.39 393.867 388.729C394.963 388.764 396.098 388.691 396.977 388.062C398.028 387.219 398.278 385.711 398.45 384.328Z" fill="#A59800"/>
</g>
<path d="M491.924 262.346C453.538 276.32 431.944 333.048 443.664 389.102C455.384 445.157 496.065 479.257 534.451 465.283C572.837 451.308 594.43 394.581 582.71 338.526C570.953 282.488 530.31 248.371 491.924 262.346ZM533.789 460.913C497.012 474.282 458.075 441.627 446.826 387.962C435.559 334.261 456.271 279.917 493.048 266.548C529.825 253.179 568.762 285.834 580.011 339.498C591.223 393.179 570.549 447.507 533.789 460.913Z" fill="#FFE85F"/>
<path d="M508.836 339.654C510.523 347.913 511.049 351.987 512.836 352.648C514.207 353.185 515.744 351.445 516.11 350.872C516.935 349.638 517.499 348.03 517.989 346.456C519.423 342.245 520.982 338.112 522.559 334.015C523.597 331.29 524.599 328.582 525.654 325.893C530.049 314.342 534.407 302.808 539.192 291.616C539.57 290.678 540.964 288.823 540.964 285.991C540.985 282.52 539.212 279.74 538.395 278.453C535.713 274.383 532.322 272.482 527.43 270.642C527.43 270.642 516.939 266.793 500.348 269.032C499.761 269.123 498.582 269.395 497.503 270.566C496.329 271.825 495.856 274.021 495.822 276.194C495.808 278.313 496.213 280.464 496.638 282.561C497.611 287.508 498.6 292.491 499.609 297.421C500.363 301.209 501.118 304.998 501.872 308.786C502.28 310.846 502.805 313.257 504.098 319C508.674 339.594 507.623 333.695 508.836 339.654Z" fill="#F8F270"/>
<path d="M517.629 357.007C518.394 358.767 520.356 359.123 520.958 359.161C522.181 359.183 523.369 358.636 524.536 358.144C527.686 356.785 530.885 355.628 534.066 354.434C536.175 353.644 538.263 352.907 540.372 352.117C549.34 348.845 558.254 345.553 567.347 342.943C568.103 342.73 570.016 342.884 571.448 341.012C573.184 338.729 573.232 335.021 573.214 333.322C573.226 327.877 571.626 323.129 568.904 316.92C568.904 316.92 563.031 303.665 549.553 288.244C549.077 287.699 548.069 286.68 546.672 286.378C545.183 286.074 543.728 287.014 542.676 288.441C541.625 289.869 540.89 291.691 540.172 293.549C538.478 297.88 536.747 302.227 535.054 306.557C533.741 309.858 532.445 313.197 531.132 316.498C530.433 318.302 529.615 320.432 527.767 325.597C521.01 344.034 523.164 339.042 521.13 344.293C518.246 351.509 516.642 354.764 517.629 357.007Z" fill="#FFF657"/>
<path d="M538.433 278.437C535.751 274.366 532.359 272.466 527.468 270.626C527.468 270.626 526.276 270.185 524.063 269.675C526.104 270.399 528.04 271.576 529.852 273.17C530.313 273.587 530.809 274.078 530.914 274.794C531.021 275.419 530.852 276.126 531.071 276.7C531.324 277.347 531.923 277.476 532.35 277.819C533.33 278.582 533.67 280.493 533.403 281.964C533.136 283.436 532.385 284.636 531.653 285.781C531.307 286.3 530.925 286.836 530.431 286.838C529.593 286.774 528.936 285.054 528.14 285.375C527.641 285.56 527.486 286.395 527.408 287.105C527.082 289.817 526.811 292.549 526.631 295.284L528.005 295.146C528.118 296.758 528.027 298.417 527.828 300.037C528.261 300.782 528.522 301.741 528.478 303.11C528.367 307.656 526.803 313.05 525.025 316.61C524.362 317.904 522.765 317.56 522.753 315.677C522.686 311.528 522.914 307.332 522.483 303.171C520.219 309.291 522.427 318.389 518.928 323.191C518.555 322.284 517.806 321.729 517.127 321.817C516.82 327.891 516.388 333.889 515.773 339.88C515.145 340.079 514.526 340.004 513.897 339.71C514.17 342.551 514.132 345.4 513.732 348.146C513.517 349.729 513.175 351.234 512.495 352.491C512.62 352.568 512.746 352.645 512.854 352.686C514.225 353.223 515.762 351.483 516.128 350.91C516.953 349.676 517.517 348.068 518.007 346.494C519.441 342.283 521 338.15 522.577 334.053L525.672 325.931C530.067 314.38 534.425 302.846 539.21 291.654C539.587 290.716 540.981 288.861 540.982 286.029C541.078 282.524 539.287 279.707 538.433 278.437ZM522.644 325.797C522.641 325.888 522.658 325.925 522.655 326.016C522.819 326.57 522.853 327.229 522.561 327.767C522.235 331.064 521.224 334.631 519.764 336.831C519.092 337.814 518.052 337.214 517.726 336.015C517.141 333.767 517.591 331.717 518.383 329.824C518.375 329.513 518.387 329.148 518.507 328.823C519.111 327.107 519.575 325.185 520.812 324.257C521.562 323.642 522.634 324.408 522.644 325.797ZM531.12 306.704C530.617 308.149 529.248 307.52 528.888 306.247C527.984 303.112 528.913 299.268 530.009 296.472C530.072 296.218 530.189 295.984 530.306 295.751C530.326 295.696 530.346 295.642 530.404 295.571C530.501 295.391 530.578 295.266 530.692 295.124C530.866 294.819 531.095 294.534 531.341 294.286C532.003 293.576 532.889 294.427 533.15 295.386C534.161 299.146 532.194 303.468 531.12 306.704ZM538.291 287.312C537.929 289.457 537.27 292.322 536.036 293.744C535.485 294.402 534.569 294.464 534.111 293.371C533.352 291.428 533.565 289.352 533.942 287.336C533.985 287.136 534.065 286.919 534.142 286.794C534.553 283.683 535.389 279.343 537.417 281.017C538.893 282.271 538.59 285.422 538.291 287.312Z" fill="#F5E642"/>
<path d="M493.048 266.547C456.272 279.916 435.577 334.297 446.826 387.962C458.076 441.626 497.013 474.281 533.789 460.912C570.566 447.543 591.261 393.161 580.011 339.497C568.725 285.85 529.825 253.178 493.048 266.547ZM546.635 286.394C548.032 286.695 549.04 287.715 549.516 288.26C562.976 303.643 568.867 316.935 568.867 316.935C571.643 323.165 573.226 327.875 573.177 333.337C573.158 335.054 573.11 338.762 571.411 341.027C569.979 342.899 568.066 342.746 567.31 342.959C558.254 345.552 549.286 348.824 540.335 352.133C538.226 352.923 536.138 353.659 534.029 354.449C530.831 355.606 527.649 356.8 524.499 358.16C523.332 358.652 522.145 359.198 520.921 359.177C520.336 359.176 518.357 358.783 517.592 357.022C516.605 354.779 518.209 351.524 521.022 344.252C523.056 339.001 520.902 343.992 527.658 325.556C529.561 320.41 530.325 318.261 531.023 316.456C532.336 313.155 533.632 309.817 534.946 306.516C536.639 302.185 538.37 297.838 540.064 293.508C540.799 291.686 541.517 289.827 542.568 288.4C543.691 287.029 545.146 286.09 546.635 286.394ZM501.91 308.769C501.156 304.98 500.402 301.192 499.648 297.403C498.676 292.457 497.686 287.473 496.677 282.543C496.251 280.446 495.863 278.333 495.86 276.176C495.874 274.057 496.385 271.845 497.541 270.548C498.621 269.378 499.799 269.105 500.387 269.015C516.977 266.776 527.468 270.625 527.468 270.625C532.397 272.447 535.752 274.365 538.433 278.435C539.287 279.706 541.078 282.523 541.003 285.974C540.965 288.823 539.608 290.661 539.23 291.599C534.445 302.79 530.05 314.342 525.693 325.876C524.654 328.601 523.653 331.309 522.597 333.998C521.038 338.131 519.461 342.228 518.027 346.439C517.483 347.992 516.957 349.583 516.148 350.854C515.745 351.444 514.246 353.168 512.875 352.63C511.087 351.969 510.562 347.896 508.875 339.637C507.644 333.64 508.658 339.557 504.119 318.945C502.843 313.239 502.318 310.828 501.91 308.769ZM457.28 309.659C457.399 307.671 458.065 306.286 458.434 305.622C468.447 287.035 477.361 279.249 477.361 279.249C481.535 275.62 484.726 273.568 488.553 273.874C489.757 273.95 492.306 274.216 494.011 276.847C495.403 278.994 495.386 281.789 495.57 282.873C497.864 296.066 500.6 309.146 503.374 322.21C504.023 325.282 504.656 328.317 505.305 331.39C506.286 336.063 507.268 340.736 508.38 345.303C508.8 346.998 509.237 348.73 509.252 350.521C509.28 351.362 509.134 354.171 507.932 355.174C506.41 356.458 504.06 353.988 498.869 349.544C495.099 346.334 498.7 349.667 485.508 338.97C481.841 335.982 480.291 334.762 478.995 333.606C476.613 331.555 474.231 329.504 471.886 327.436C468.758 324.74 465.684 322.064 462.556 319.368C461.259 318.211 459.926 317.072 458.881 315.485C457.89 313.918 457.12 311.755 457.28 309.659ZM448.68 375.871C446.208 351.836 448.391 336.943 448.391 336.943C449.403 329.959 450.544 325.209 453.258 321.533C454.118 320.373 455.969 317.948 458.373 318.191C460.358 318.401 461.699 320.437 462.391 321.062C470.425 328.558 478.696 335.496 486.987 342.38C488.945 343.996 490.865 345.63 492.822 347.247C495.757 349.717 498.729 352.171 501.724 354.479C502.829 355.319 503.989 356.179 504.897 357.469C505.316 358.085 506.614 360.32 506.312 362.302C505.938 364.811 503.142 365.378 497.487 367.351C493.384 368.789 497.441 367.642 483.322 373.104C479.399 374.639 477.752 375.262 476.311 375.745C473.706 376.629 471.101 377.512 468.496 378.396C465.078 379.564 461.697 380.715 458.279 381.883C456.838 382.366 455.397 382.85 453.903 382.728C452.408 382.606 450.847 381.752 449.916 380.022C449.017 378.458 448.762 376.732 448.68 375.871ZM479.277 440.322C477.879 440.021 476.871 439.002 476.395 438.456C462.935 423.073 457.044 409.781 457.044 409.781C454.268 403.551 452.685 398.841 452.735 393.379C452.754 391.662 452.801 387.955 454.501 385.689C455.932 383.817 457.846 383.971 458.602 383.758C467.657 381.165 476.625 377.893 485.576 374.584C487.685 373.793 489.774 373.057 491.882 372.267C495.081 371.11 498.262 369.916 501.413 368.556C502.58 368.064 503.767 367.518 504.991 367.54C505.575 367.54 507.554 367.933 508.319 369.694C509.306 371.937 507.702 375.192 504.89 382.464C502.856 387.716 505.009 382.724 498.253 401.16C496.35 406.306 495.586 408.456 494.888 410.26C493.575 413.561 492.279 416.9 490.966 420.201C489.272 424.531 487.542 428.878 485.848 433.209C485.113 435.03 484.395 436.889 483.343 438.316C482.238 439.724 480.782 440.663 479.277 440.322ZM523.875 416.792C524.629 420.581 525.383 424.369 526.137 428.158C527.109 433.104 528.098 438.088 529.108 443.018C529.533 445.115 529.921 447.228 529.924 449.385C529.91 451.504 529.4 453.716 528.243 455.013C527.164 456.184 525.986 456.456 525.398 456.546C508.808 458.785 498.317 454.937 498.317 454.937C493.388 453.114 490.033 451.196 487.351 447.126C486.497 445.855 484.707 443.038 484.782 439.587C484.82 436.738 486.177 434.9 486.554 433.962C491.339 422.771 495.734 411.22 500.092 399.685C501.13 396.96 502.132 394.252 503.188 391.563C504.747 387.43 506.323 383.333 507.757 379.122C508.301 377.569 508.828 375.978 509.636 374.707C510.039 374.117 511.539 372.393 512.91 372.931C514.697 373.592 515.223 377.666 516.91 385.924C518.141 391.921 517.127 386.004 521.665 406.616C522.942 412.322 523.466 414.733 523.875 416.792ZM568.299 416.626C568.179 418.614 567.513 419.999 567.145 420.664C557.131 439.25 548.218 447.037 548.218 447.037C544.043 450.665 540.852 452.718 537.025 452.411C535.822 452.335 533.272 452.07 531.567 449.438C530.175 447.292 530.193 444.496 530.009 443.412C527.714 430.219 524.978 417.139 522.204 404.076C521.555 401.003 520.923 397.968 520.273 394.895C519.292 390.222 518.311 385.55 517.198 380.982C516.778 379.287 516.341 377.556 516.326 375.764C516.299 374.923 516.445 372.114 517.647 371.111C519.168 369.827 521.518 372.297 526.709 376.741C530.479 379.951 526.878 376.619 540.07 387.316C543.737 390.303 545.287 391.523 546.583 392.68C548.965 394.73 551.347 396.781 553.692 398.849C556.82 401.545 559.894 404.221 563.023 406.917C564.319 408.074 565.652 409.213 566.697 410.8C567.688 412.367 568.458 414.53 568.299 416.626ZM578.029 389.315C577.017 396.299 575.876 401.049 573.162 404.725C572.302 405.885 570.451 408.309 568.047 408.067C566.062 407.856 564.721 405.821 564.029 405.196C555.995 397.699 547.724 390.762 539.433 383.878C537.475 382.261 535.555 380.628 533.597 379.011C530.663 376.54 527.691 374.087 524.696 371.779C523.591 370.939 522.431 370.079 521.523 368.789C521.104 368.172 519.806 365.938 520.108 363.956C520.482 361.446 523.278 360.879 528.933 358.907C533.036 357.469 528.979 358.616 543.098 353.154C547.021 351.619 548.667 350.996 550.108 350.513C552.713 349.629 555.318 348.745 557.923 347.861C561.342 346.693 564.723 345.542 568.141 344.374C569.582 343.891 571.023 343.408 572.517 343.53C574.011 343.651 575.573 344.506 576.504 346.235C577.383 347.854 577.638 349.579 577.719 350.441C580.157 374.401 578.029 389.315 578.029 389.315Z" fill="#FFFAD7"/>
<path d="M576.524 346.183C575.593 344.453 574.031 343.599 572.537 343.477C571.042 343.356 569.602 343.839 568.161 344.322C564.742 345.49 561.361 346.641 557.943 347.809C555.338 348.693 552.733 349.577 550.128 350.461C548.687 350.944 547.058 351.603 543.117 353.102C528.999 358.563 533.093 357.399 528.953 358.854C523.314 360.864 520.502 361.394 520.128 363.903C519.826 365.885 521.124 368.12 521.542 368.736C522.451 370.027 523.593 370.849 524.716 371.726C527.711 374.034 530.682 376.488 533.617 378.959C535.575 380.575 537.495 382.209 539.452 383.826C547.706 390.726 556.015 397.647 564.049 405.143C564.704 405.786 566.082 407.804 568.067 408.014C570.471 408.257 572.322 405.832 573.182 404.672C575.858 401.013 577.036 396.246 578.049 389.263C578.049 389.263 580.194 374.386 577.759 350.334C577.658 349.527 577.403 347.801 576.524 346.183Z" fill="#F8F270"/>
<path d="M562.951 406.861C559.822 404.165 556.748 401.488 553.62 398.792C551.238 396.742 548.856 394.691 546.511 392.623C545.232 391.504 543.665 390.247 539.998 387.259C526.806 376.562 530.407 379.895 526.637 376.685C521.463 372.278 519.096 369.771 517.574 371.055C516.372 372.058 516.244 374.904 516.254 375.708C516.306 377.482 516.743 379.214 517.126 380.926C518.219 385.547 519.237 390.203 520.201 394.839C520.85 397.911 521.483 400.947 522.132 404.019C524.906 417.082 527.625 430.125 529.936 443.356C530.12 444.44 530.14 447.218 531.495 449.382C533.146 451.993 535.75 452.279 536.953 452.354C540.78 452.661 543.934 450.626 548.145 446.98C548.145 446.98 557.059 439.193 567.072 420.607C567.441 419.943 568.09 418.521 568.227 416.57C568.369 414.437 567.653 412.294 566.591 410.67C565.617 409.14 564.284 408 562.951 406.861Z" fill="#F8F270"/>
<path d="M516.91 385.925C515.223 377.666 514.697 373.593 512.91 372.932C511.538 372.394 510.002 374.135 509.636 374.707C508.81 375.941 508.247 377.549 507.757 379.123C506.323 383.334 504.764 387.467 503.187 391.564C502.149 394.289 501.147 396.998 500.091 399.686C495.697 411.237 491.339 422.771 486.554 433.963C486.176 434.901 484.782 436.756 484.782 439.588C484.76 443.059 486.534 445.839 487.351 447.126C490.033 451.197 493.424 453.097 498.316 454.937C498.316 454.937 508.807 458.786 525.398 456.547C525.985 456.456 527.164 456.184 528.243 455.013C529.417 453.754 529.89 451.558 529.924 449.385C529.938 447.266 529.533 445.115 529.108 443.018C528.135 438.072 527.146 433.088 526.137 428.158C525.382 424.37 524.628 420.581 523.874 416.793C523.466 414.733 522.941 412.322 521.648 406.58C517.109 385.968 518.16 391.867 516.91 385.925Z" fill="#F8F270"/>
<path d="M490.928 420.219C492.241 416.918 493.537 413.58 494.851 410.279C495.549 408.474 496.367 406.345 498.216 401.179C504.972 382.743 502.818 387.734 504.852 382.483C507.627 375.228 509.269 371.955 508.282 369.713C507.516 367.952 505.555 367.596 504.953 367.558C503.729 367.537 502.542 368.083 501.375 368.575C498.225 369.934 495.026 371.091 491.845 372.285C489.736 373.076 487.647 373.812 485.539 374.602C476.571 377.874 467.657 381.166 458.564 383.776C457.808 383.989 455.895 383.835 454.463 385.708C452.727 387.99 452.679 391.698 452.697 393.398C452.685 398.842 454.285 403.59 457.007 409.799C457.007 409.799 462.88 423.054 476.358 438.475C476.833 439.02 477.842 440.04 479.239 440.341C480.727 440.645 482.183 439.705 483.234 438.278C484.286 436.85 485.021 435.029 485.739 433.17C487.524 428.843 489.235 424.549 490.928 420.219Z" fill="#F8F270"/>
<path d="M453.919 382.766C455.413 382.888 456.854 382.405 458.295 381.922C461.713 380.753 465.094 379.602 468.512 378.434C471.117 377.551 473.722 376.667 476.327 375.783C477.768 375.3 479.398 374.64 483.338 373.142C497.457 367.68 493.363 368.844 497.503 367.389C503.141 365.379 505.954 364.85 506.328 362.34C506.629 360.358 505.332 358.124 504.913 357.507C504.005 356.217 502.862 355.394 501.739 354.517C498.745 352.209 495.773 349.755 492.838 347.285C490.881 345.668 488.961 344.034 487.003 342.418C478.749 335.517 470.441 328.597 462.407 321.1C461.752 320.458 460.374 318.44 458.389 318.229C455.985 317.986 454.134 320.411 453.274 321.571C450.597 325.23 449.419 329.997 448.407 336.981C448.407 336.981 446.261 351.857 448.696 375.909C448.778 376.771 449.033 378.496 449.912 380.115C450.862 381.79 452.424 382.645 453.919 382.766Z" fill="#F8F270"/>
<path d="M462.572 319.405C465.701 322.101 468.775 324.777 471.903 327.474C474.285 329.524 476.667 331.575 479.012 333.643C480.291 334.762 481.858 336.019 485.525 339.007C498.717 349.704 495.116 346.371 498.886 349.581C504.06 353.988 506.427 356.495 507.948 355.211C509.15 354.208 509.279 351.362 509.269 350.558C509.217 348.784 508.78 347.052 508.397 345.34C507.304 340.719 506.286 336.063 505.322 331.427C504.672 328.355 504.04 325.319 503.391 322.247C500.617 309.184 497.898 296.141 495.586 282.91C495.402 281.826 495.383 279.048 494.028 276.884C492.377 274.273 489.773 273.987 488.57 273.912C484.743 273.605 481.589 275.64 477.377 279.286C477.377 279.286 468.464 287.073 458.45 305.659C458.082 306.323 457.433 307.745 457.296 309.696C457.154 311.829 457.87 313.972 458.932 315.596C459.96 317.146 461.293 318.286 462.572 319.405Z" fill="#F8F270"/>
<path d="M534.998 306.535C533.685 309.836 532.389 313.175 531.076 316.476C530.378 318.28 529.56 320.41 527.711 325.576C520.955 344.012 523.109 339.02 521.074 344.272C518.299 351.527 516.658 354.799 517.645 357.042C518.41 358.803 520.372 359.159 520.974 359.196C522.197 359.218 523.384 358.672 524.551 358.18C527.702 356.82 530.9 355.663 534.082 354.469C536.19 353.679 538.279 352.943 540.388 352.152C549.356 348.88 558.27 345.589 567.362 342.978C568.118 342.765 570.032 342.919 571.463 341.047C573.2 338.764 573.247 335.057 573.229 333.357C573.242 327.912 571.642 323.164 568.92 316.955C568.92 316.955 563.046 303.7 549.569 288.28C549.093 287.734 548.085 286.715 546.688 286.414C545.199 286.11 543.743 287.049 542.692 288.477C541.641 289.904 540.906 291.726 540.188 293.585C538.423 297.858 536.692 302.205 534.998 306.535Z" fill="#F8F270"/>
<g opacity="0.59">
<g opacity="0.59">
<g opacity="0.59">
<path opacity="0.59" d="M548.127 340.545C548.164 340.528 548.238 340.494 548.275 340.477C548.221 340.457 548.147 340.491 548.127 340.545Z" fill="#F9EC48"/>
</g>
<g opacity="0.59">
<g opacity="0.59">
<path opacity="0.59" d="M568.863 316.935C568.863 316.935 566.903 312.577 562.733 305.955C564.852 311.049 567.79 315.676 568.519 321.364C568.694 322.721 568.66 324.31 568.169 325.39C568.465 325.838 568.704 326.358 568.98 326.86C569.355 327.676 569.22 328.458 568.84 328.902C568.949 328.942 569.057 328.982 569.165 329.022C570.496 329.668 571.279 331.466 570.669 333.365C569.163 338.103 564.928 332.904 562.535 332.882C561.211 333.716 559.736 334.125 558.221 334.057C558.108 333.615 557.957 333.19 557.844 332.748C554.182 332.409 551.513 336.964 549.087 340.777C548.875 341.099 548.59 341.455 548.282 341.372C548.028 341.309 547.954 340.759 548.089 340.562C543.805 342.488 539.576 344.433 535.293 346.359C536.568 346.492 537.805 347.226 538.824 348.465C536.904 349.079 534.967 349.656 533.046 350.269C529.189 351.46 525.237 352.738 522.082 355.943C520.363 357.678 519.287 358.173 517.83 357.45C518.699 358.848 520.424 359.178 520.917 359.176C522.141 359.197 523.328 358.651 524.495 358.159C527.645 356.8 530.844 355.643 534.025 354.449C536.134 353.659 538.223 352.922 540.331 352.132C549.299 348.86 558.213 345.568 567.306 342.958C568.062 342.745 569.976 342.899 571.407 341.026C573.144 338.744 573.191 335.036 573.173 333.337C573.222 327.875 571.639 323.164 568.863 316.935ZM548.811 347.017C546.82 349.236 544.084 347.978 541.824 348.928C541.288 349.13 540.894 348.861 540.635 348.396C539.726 347.691 539.521 345.583 540.756 345.239C541.235 345.108 541.732 345.015 542.211 344.884C544.165 344.345 546.106 343.677 548.168 343.762C549.408 343.821 549.665 346.04 548.811 347.017ZM559.494 341.023C557.73 341.88 555.765 341.615 553.945 341.958C552.99 342.128 551.956 340.761 552.531 339.372C553.343 337.425 554.515 337.335 555.864 337.434C556.347 337.212 556.849 336.936 557.348 336.751C558.33 336.345 559.874 335.499 560.879 336.61C562.36 338.266 560.627 340.457 559.494 341.023Z" fill="#F5E642"/>
</g>
</g>
</g>
</g>
<path d="M575.249 394.999C575.247 393.921 575.776 393.408 576.343 393.372C576.395 392.898 576.41 392.442 576.462 391.969C576.698 390.332 577.304 389.109 578.158 388.132C578.544 384.673 579.461 373.867 578.334 357.934C577.979 361.559 577.39 365.066 576.53 368.473C576.089 370.25 575.613 371.952 575.297 373.805C574.688 377.367 574.818 381.263 573.707 384.516C573.304 385.69 572.721 386.768 571.898 387.326C571.767 387.431 571.582 387.516 571.433 387.585C572.213 388.889 572.428 390.723 571.542 392.12C570.387 393.909 568.241 393.054 566.804 392.276C565.26 391.459 563.558 390.399 562.314 388.769C562.297 388.731 562.28 388.694 562.28 388.694C560.474 388.581 558.655 388.339 556.879 387.898C557.174 388.931 557.598 389.949 558.024 390.877C554.755 389.729 551.597 387.946 548.476 386.145C542.969 382.97 537.426 379.811 531.919 376.636C530.7 375.939 529.571 375.244 528.437 374.732C530.18 376.178 531.924 377.623 533.668 379.068L539.503 383.935C547.757 390.836 556.065 397.756 564.099 405.253C564.754 405.895 566.132 407.914 568.117 408.124C570.521 408.367 572.372 405.942 573.232 404.782C574.589 402.944 575.573 400.783 576.332 398.232C575.423 397.526 575.259 396.388 575.249 394.999ZM560.212 395.534C560.097 396.261 559.546 396.919 558.947 396.79C558.702 397.038 558.388 397.138 557.991 396.96C556.224 396.245 554.646 394.769 553.319 392.862C552.394 391.535 553.26 389.608 554.418 389.974C556.245 390.527 557.592 392.379 559.296 393.348C559.923 393.734 560.353 394.57 560.212 395.534ZM570.213 401.541C570.26 402.328 569.837 402.972 569.355 403.194C567.092 404.235 563.522 401.653 563.369 397.902C563.345 396.97 563.919 396.166 564.558 396.187C564.595 396.17 564.612 396.207 564.649 396.19C564.989 395.854 565.499 395.888 565.893 396.157C566.733 396.714 567.674 397 568.475 397.666C569.506 398.54 570.158 399.858 570.213 401.541Z" fill="#F5E642"/>
<path d="M566.643 410.782C566.364 410.371 566.085 409.96 565.786 409.603C565.69 411.446 565.594 413.288 565.534 415.113C565.468 416.043 565.415 417.101 564.904 417.651C564.487 418.112 563.848 418.092 563.499 418.702C563.188 419.294 563.286 420.193 563.28 420.96C563.271 423.481 561.694 425.331 560.093 426.247C559.46 426.628 558.738 426.916 558.292 427.705C557.963 428.261 557.831 428.951 557.591 429.601C556.704 432.167 554.469 433.464 552.488 432.578C552.63 434.94 551.772 437.177 550.589 438.71C549.407 440.243 547.897 441.163 546.387 442.082C545.939 442.378 545.437 442.654 544.929 442.528C544.422 442.402 543.932 441.729 544.047 441.001C543.881 441.033 543.716 441.064 543.55 441.095C543.943 441.948 544.221 442.944 544.317 443.934C544.353 444.501 544.076 445.168 543.739 445.413C543.665 445.447 543.608 445.519 543.534 445.553C543.485 445.935 543.307 446.331 543.025 446.596C541.951 447.584 540.566 446.918 539.789 445.522C539.53 445.057 539.308 444.575 539.16 444.059C539.123 444.076 539.103 444.13 539.066 444.147C539.219 445.065 539.318 445.964 539.194 446.965C539.113 447.766 538.534 448.168 538.057 448.207C537.196 448.289 536.364 447.458 535.835 446.308C535.319 446.455 534.822 446.549 534.278 446.44C531.149 445.991 530.104 442.741 529.227 439.369C529.456 440.747 529.722 442.108 529.952 443.486C530.136 444.57 530.155 447.348 531.51 449.511C533.161 452.123 535.765 452.408 536.968 452.484C540.795 452.791 543.949 450.755 548.161 447.11C548.161 447.11 557.074 439.323 567.088 420.737C567.456 420.073 568.105 418.65 568.242 416.699C568.458 414.532 567.688 412.369 566.643 410.782Z" fill="#F5E642"/>
<path d="M529.94 449.423C529.954 447.304 529.549 445.153 529.124 443.056C528.996 442.486 528.923 441.935 528.795 441.365C528.71 443.426 528.456 445.611 528.133 446.569C527.403 448.793 525.696 450.162 523.967 450.508C522.238 450.854 520.428 450.338 518.734 449.589C518.067 449.312 517.366 448.96 516.718 449.213C516.145 449.432 515.668 450.056 515.211 450.626C513.857 452.373 511.964 453.828 510.246 452.73C509.673 452.365 509.163 451.745 508.544 451.67C507.489 451.526 506.786 452.929 505.887 453.612C504.819 454.418 503.493 454.174 502.273 454.061C500.559 453.951 498.833 454.205 497.127 454.406C497.523 454.583 497.957 454.743 498.373 454.867C498.373 454.867 508.864 458.715 525.454 456.477C526.042 456.386 527.22 456.114 528.3 454.943C529.416 453.755 529.927 451.542 529.94 449.423Z" fill="#F5E642"/>
<path d="M498.86 396.52C496.614 400.43 494.541 404.62 492.736 409.002C492.298 410.102 491.803 411.274 491.104 412C490.384 412.781 489.334 413.039 488.536 412.282C487.461 415.025 486.368 417.73 485.292 420.472C485.657 420.484 486.005 420.459 486.37 420.471C486.651 421.96 485.893 423.342 485.253 424.491C483.996 426.643 482.803 429.034 482.637 431.898C482.588 432.864 482.643 433.962 482.129 434.604C481.881 434.943 481.53 435.059 481.216 435.159C479.61 435.673 477.975 435.93 476.292 435.985C476.769 435.361 476.842 434.249 476.504 433.416C476.128 432.6 475.336 432.245 474.793 432.63C474.494 432.857 474.225 433.251 473.88 433.185C473.626 433.122 473.436 432.805 473.245 432.488C471.623 429.548 469.318 427.372 466.886 426.288C469.506 430.028 472.661 434.15 476.432 438.438C476.908 438.984 477.916 440.003 479.313 440.304C480.802 440.608 482.257 439.669 483.309 438.241C484.36 436.814 485.095 434.992 485.813 433.133C487.507 428.803 489.238 424.456 490.931 420.126C492.244 416.824 493.54 413.486 494.853 410.185C495.552 408.381 496.37 406.251 498.219 401.085C499.684 397.04 500.728 394.132 501.509 392.02C500.566 393.487 499.712 395.049 498.86 396.52Z" fill="#F5E642"/>
<path d="M504.95 361.984C504.108 362.596 497.97 364.791 493.659 365.875C491.957 368.232 489.588 369.726 487.156 369.227C486.266 369.052 485.557 367.805 486.035 366.596C486.633 365.062 487.501 364.213 488.509 363.57C487.998 363.535 487.485 363.592 487.039 363.796C484.854 364.712 483.561 367.959 481.522 369.391C480.101 370.405 478.401 370.423 476.738 370.424L470.854 370.434C469.54 370.409 468.205 370.439 466.896 370.232C467.393 371.801 466.749 373.626 465.79 374.472C464.831 375.318 463.621 375.424 462.449 375.514C463.272 376.619 464.383 377.276 465.513 377.386C463.115 378.624 460.57 379.93 458.001 379.134C455.432 378.338 453.012 374.642 453.658 371.063L451.205 371.203C450.926 368.544 449.628 366.309 448.624 364.029C448.283 363.287 448.016 362.511 447.732 361.698C447.903 365.979 448.206 370.74 448.75 375.928C448.832 376.79 449.086 378.516 449.965 380.134C450.896 381.863 452.458 382.718 453.952 382.84C455.447 382.961 456.887 382.478 458.328 381.995C461.747 380.827 465.128 379.676 468.546 378.508C471.151 377.624 473.756 376.74 476.361 375.856C477.802 375.373 479.431 374.713 483.372 373.215C497.49 367.753 493.396 368.918 497.536 367.463C503.175 365.453 505.987 364.923 506.361 362.414C506.433 361.886 506.414 361.356 506.303 360.822C505.815 361.226 505.381 361.651 504.95 361.984Z" fill="#F5E642"/>
<path d="M508.399 345.249C507.307 340.627 506.289 335.971 505.325 331.335C504.675 328.263 504.043 325.228 503.393 322.155C502.049 315.716 500.685 309.332 499.395 302.913C499.328 304.427 499.24 305.996 499.173 307.51C499.109 308.933 498.664 310.801 497.703 310.569C497.486 313.321 497.976 316.242 499.105 318.599C499.352 317.767 499.618 316.88 499.864 316.047C500.075 318.557 501.116 320.82 501.975 323.077C504.03 328.425 505.318 334.35 505.727 340.32C505.177 340.393 504.561 340.227 504.059 339.919C504.519 341.505 504.774 343.231 504.866 344.896C504.886 345.427 504.865 346.066 504.582 346.331C504.299 346.596 503.957 346.438 503.615 346.281C501.332 345.129 499.049 343.977 496.766 342.825C497.572 343.892 498.169 345.191 498.524 346.646C495.924 345.684 493.313 344.503 490.762 343.16C497.814 348.815 495.794 346.868 498.96 349.547C504.134 353.954 506.501 356.461 508.022 355.176C509.224 354.174 509.353 351.328 509.343 350.523C509.22 348.692 508.782 346.96 508.399 345.249Z" fill="#F5E642"/>
<path d="M476.672 387.669C476.56 387.721 476.469 387.718 476.358 387.769C476.284 387.803 476.315 387.969 476.389 387.934C476.5 387.883 476.612 387.832 476.686 387.798C476.777 387.801 476.726 387.69 476.672 387.669Z" fill="#FFF9AB"/>
<path d="M530.964 332.937C527.623 333.395 525.72 341.373 523.624 346.293C520.453 352.786 534.187 337.792 530.964 332.937Z" fill="#F6D938"/>
<path d="M530.962 328.441C531.461 326.594 533.432 323.844 536.913 315.68C533.261 313.899 529.694 323.047 530.962 328.441Z" fill="#F6D938"/>
<path d="M541.992 314.017C541.475 314.165 533.615 328.344 537.493 324.268C539.333 323.871 547.88 310.499 541.992 314.017Z" fill="#F6D938"/>
<path d="M537.676 313.529C541.5 311.68 542.175 305.526 544.438 299.99C553.573 283.696 536.403 295.911 537.676 313.529Z" fill="#F6D938"/>
<path d="M546.547 301.448C544.198 307.383 552.781 297.411 547.891 298.897C547.085 300.077 547.345 299.373 546.547 301.448Z" fill="#F6D938"/>
<path d="M510.729 295.407C508.247 291.379 506.607 309.799 508.123 313.192C509.341 308.316 512.687 301.518 510.729 295.407Z" fill="#F6D938"/>
<path d="M504.991 303.351C506.774 300.193 504.376 290.779 503.06 284.596C497.903 282.474 504.526 298.531 504.991 303.351Z" fill="#F6D938"/>
<path d="M506.379 285.362C505.916 283.867 506.877 281.267 506.099 273.714C500.924 269.892 503.252 283.744 506.379 285.362Z" fill="#F6D938"/>
<path d="M509.635 332.499C513.596 337.105 510.629 323.816 507.825 319.577C507.581 323.151 509.102 326.946 509.635 332.499Z" fill="#F6D938"/>
<path d="M484.082 328.838C473.533 321.151 476.689 331.431 488.49 334.901C491.128 337.509 490.095 333.309 484.082 328.838Z" fill="#F6D938"/>
<path d="M483.887 324.701C484.749 324.035 483.33 322.71 481.933 320.161C468.73 301.918 477.001 322.925 483.887 324.701Z" fill="#F6D938"/>
<path d="M474.307 321.468C471.883 316.785 470.128 315.12 465.201 309.296C460.014 313.166 470.172 321.078 474.307 321.468Z" fill="#F6D938"/>
<path d="M470.841 310.612C471.602 311.385 469.317 304.66 466.822 303.83C464.818 305.921 468.529 310.372 470.841 310.612Z" fill="#F6D938"/>
<path d="M482.872 308.718C482.665 307.195 479.871 303.76 478.538 300.373C473.759 299.56 479.609 308.466 482.872 308.718Z" fill="#F6D938"/>
<path d="M466.406 363.985C476.173 365.38 471.49 357.645 462.114 361.105C462.109 362.95 464.105 363.38 466.406 363.985Z" fill="#F6D938"/>
<path d="M455.707 365.94C456.798 369.483 465.434 371.353 465.379 367.423C462.973 368.935 455.339 358.692 455.707 365.94Z" fill="#F6D938"/>
<path d="M452.532 357.962C455.754 358.323 460.469 357.727 454.458 354.334C452.703 353.254 449.614 355.529 452.532 357.962Z" fill="#F6D938"/>
<path d="M476.417 382.62C474.132 385.469 471.92 386.621 467.956 386.018C452.631 384.168 468.1 401.279 476.417 382.62Z" fill="#F6D938"/>
<path d="M467.688 394.815C465.194 395.648 457.829 392.339 457.902 400.216C458.747 404.008 466.379 397.44 467.688 394.815Z" fill="#F6D938"/>
<path d="M485.312 382.121C483.564 384.184 477.22 387.103 476.529 392.635C479.295 392.981 485.335 388.718 485.312 382.121Z" fill="#F6D938"/>
<path d="M492.48 378.553C491.434 378.135 486.907 383.634 490.809 383.323C490.773 382.17 493.773 379.801 492.48 378.553Z" fill="#F6D938"/>
<path d="M503.607 400.587C503.88 398.933 499.753 405.596 499.614 412.133C503.141 415.5 503.132 403.952 503.607 400.587Z" fill="#F6D938"/>
<path d="M497.675 418.959C485.429 434.841 493.447 447.874 494.581 432.069C494.33 430.252 500.171 420.867 497.675 418.959Z" fill="#F6D938"/>
<path d="M498.423 429.086C496.503 431.947 495.182 441.68 496.945 446.487C501.211 449.604 498.935 430.783 498.423 429.086Z" fill="#F6D938"/>
<path d="M504.182 409.85C504.141 412.791 502.763 418.099 503.856 422.136C503.335 419.635 508.928 407.757 504.182 409.85Z" fill="#F6D938"/>
<path d="M524.498 394.212C525.633 398.634 524.935 407.181 527.458 412.762C534.089 413.398 525.554 399.928 524.498 394.212Z" fill="#F6D938"/>
<path d="M528.412 418.257C527.697 420.609 529.201 424.367 530.471 428.008C536.382 433.919 531.668 419.276 528.412 418.257Z" fill="#F6D938"/>
<path d="M531.193 432.215C529.908 432.94 531.583 439.901 532.761 435.134C532.382 434.409 533.217 435.149 531.193 432.215Z" fill="#F6D938"/>
<path d="M533.761 407.704C531.424 404.284 533.754 423.125 538.543 423.08C539.162 418.075 534.518 414.233 533.761 407.704Z" fill="#F6D938"/>
<path d="M542.294 360.987C547.709 352.922 532.173 360.384 531.551 363.233C535.014 362.943 537.999 363.277 542.294 360.987Z" fill="#F6D938"/>
<path d="M550.146 363.396C547.844 363.376 541.339 362.817 540.45 367.137C541.859 364.826 555.761 370.521 550.146 363.396Z" fill="#F6D938"/>
<path d="M561.793 354.127C559.086 349.709 551.266 354.206 549.798 358.342C551.897 358.41 563.963 358.747 561.793 354.127Z" fill="#F6D938"/>
</g>
<defs>
<filter id="filter0_f_1_645" x="0.101776" y="0.527008" width="776.633" height="718.445" filterUnits="userSpaceOnUse" color-interpolation-filters="sRGB">
<feFlood flood-opacity="0" result="BackgroundImageFix"/>
<feBlend mode="normal" in="SourceGraphic" in2="BackgroundImageFix" result="shape"/>
<feGaussianBlur stdDeviation="75.681" result="effect1_foregroundBlur_1_645"/>
</filter>
<filter id="filter1_f_1_645" x="377.489" y="453.802" width="240.706" height="45.8866" filterUnits="userSpaceOnUse" color-interpolation-filters="sRGB">
<feFlood flood-opacity="0" result="BackgroundImageFix"/>
<feBlend mode="normal" in="SourceGraphic" in2="BackgroundImageFix" result="shape"/>
<feGaussianBlur stdDeviation="5.8617" result="effect1_foregroundBlur_1_645"/>
</filter>
<filter id="filter2_i_1_645" x="368.514" y="259.48" width="204.373" height="229.399" filterUnits="userSpaceOnUse" color-interpolation-filters="sRGB">
<feFlood flood-opacity="0" result="BackgroundImageFix"/>
<feBlend mode="normal" in="SourceGraphic" in2="BackgroundImageFix" result="shape"/>
<feColorMatrix in="SourceAlpha" type="matrix" values="0 0 0 0 0 0 0 0 0 0 0 0 0 0 0 0 0 0 127 0" result="hardAlpha"/>
<feOffset dx="9.62932" dy="20.4623"/>
<feGaussianBlur stdDeviation="12.6385"/>
<feComposite in2="hardAlpha" operator="arithmetic" k2="-1" k3="1"/>
<feColorMatrix type="matrix" values="0 0 0 0 1 0 0 0 0 0.725391 0 0 0 0 0.229167 0 0 0 1 0"/>
<feBlend mode="normal" in2="shape" result="effect1_innerShadow_1_645"/>
</filter>
<filter id="filter3_i_1_645" x="358.901" y="358.979" width="160.579" height="110.026" filterUnits="userSpaceOnUse" color-interpolation-filters="sRGB">
<feFlood flood-opacity="0" result="BackgroundImageFix"/>
<feBlend mode="normal" in="SourceGraphic" in2="BackgroundImageFix" result="shape"/>
<feColorMatrix in="SourceAlpha" type="matrix" values="0 0 0 0 0 0 0 0 0 0 0 0 0 0 0 0 0 0 127 0" result="hardAlpha"/>
<feOffset dx="-9.62932" dy="-1.20366"/>
<feGaussianBlur stdDeviation="12.0366"/>
<feComposite in2="hardAlpha" operator="arithmetic" k2="-1" k3="1"/>
<feColorMatrix type="matrix" values="0 0 0 0 1 0 0 0 0 1 0 0 0 0 1 0 0 0 0.25 0"/>
<feBlend mode="normal" in2="shape" result="effect1_innerShadow_1_645"/>
</filter>
<linearGradient id="paint0_linear_1_645" x1="388.418" y1="151.889" x2="388.418" y2="553.425" gradientUnits="userSpaceOnUse">
<stop stop-color="#FFBE07"/>
<stop offset="1" stop-color="#FED45D" stop-opacity="0"/>
</linearGradient>
<linearGradient id="paint1_linear_1_645" x1="391.178" y1="90.0964" x2="391.178" y2="233.425" gradientUnits="userSpaceOnUse">
<stop stop-color="#D6D6D6"/>
<stop offset="1" stop-color="#979797" stop-opacity="0"/>
</linearGradient>
<clipPath id="clip0_1_645">
<rect width="219" height="216" fill="white" transform="translate(369 257)"/>
</clipPath>
</defs>
</svg>
